# xmcd
#
# Track frame offsets:
#  150
#  11461
#  28795
#  51553
#  72090
#  89530
#  105420
#  120417
#  138516
#  153572
#  172444
#
# Disc length: 2534 seconds
#
# Revision: 0
# Processed by: cddbd v1.5.1PL2 Copyright (c) Steve Scherf et al.
# Submitted via: Collectorz.com_Music_Collector 6.9
#
DISCID=9709e40b
DTITLE=Dan Baird - Out of Mothballs
DYEAR=2003
DGENRE=
TTITLE0=Rock This Place
TTITLE1=Picture on the Wall
TTITLE2=Memphis
TTITLE3=Any Little Thing
TTITLE4=Shine a Light
TTITLE5=Little Stories
TTITLE6=Trouble Comin'
TTITLE7=Lock and Key
TTITLE8=Seventh Son
TTITLE9=Shake it Wild
TTITLE10=Don't Open That Door
EXTD=
EXTT0=
EXTT1=
EXTT2=
EXTT3=
EXTT4=
EXTT5=
EXTT6=
EXTT7=
EXTT8=
EXTT9=
EXTT10=
PLAYORDER=
